<?xml version="1.0" encoding="UTF-8"?>
<svg width="266px" height="304px" viewBox="0 0 266 304" version="1.1" xmlns="http://www.w3.org/2000/svg" xmlns:xlink="http://www.w3.org/1999/xlink">
    <!-- Generator: Sketch 53.2 (72643) - https://sketchapp.com -->
    <title>Box w Helmet</title>
    <desc>Created with Sketch.</desc>
    <defs>
        <polygon id="path-1" points="0.09543375 0.0192181818 50.6045587 0.0192181818 50.6045587 63 0.09543375 63"></polygon>
    </defs>
    <g id="Page-1" stroke="none" stroke-width="1" fill="none" fill-rule="evenodd">
        <g id="Mobile" transform="translate(-27.000000, -2081.000000)">
            <g id="disclaimer" transform="translate(0.000000, 1676.000000)">
                <g id="Box-w-Helmet" transform="translate(27.000000, 407.000000)">
                    <path d="M252.147595,180.072731 L266,180.072731 C266,180.072731 264.767895,192.677599 245.990261,191.14337 C245.990261,191.14337 209.63328,201.602864 202.282764,200.972621 L190,191.455309 L193.221593,173 L205.051331,187.151829 L242.914147,187.151829 C242.914147,187.151829 245.064428,179.779891 247.840651,178.551235 C250.609856,177.322578 252.147595,180.072731 252.147595,180.072731" id="Fill-1" fill="#FDC07D"></path>
                    <polygon id="Fill-3" fill="#8E6B44" points="213 120.003383 196.29226 152 141 137.911519 150.783503 117"></polygon>
                    <g id="Group-7" transform="translate(129.000000, 239.000000)">
                        <mask id="mask-2" fill="white">
                            <use xlink:href="#path-1"></use>
                        </mask>
                        <g id="Clip-6"></g>
                        <path d="M31.1416837,53.9637636 L50.6045587,51.7046727 C46.0655587,59.3410364 30.4652962,63.0001273 30.4652962,63.0001273 L0.09543375,0.0192181818 L18.7040587,1.71830909 L31.1416837,53.9637636 Z" id="Fill-5" fill="#FDC07D" mask="url(#mask-2)"></path>
                    </g>
                    <g id="Group-28" transform="translate(80.000000, 38.000000)">
                        <path d="M101.074683,116.977938 C98.553334,118.868584 96.0465226,120.398717 93.6952019,121.447538 L93.6926736,121.450055 C91.4172019,122.459867 89.2915321,123.022342 87.4465038,123.022342 C82.0782868,123.022342 83.2710132,119.756967 77.9053245,116.78793 C74.9990415,115.181038 70.6952396,112.878288 67.3572491,111.105926 C67.7636736,110.162805 68.135966,109.227863 68.4678057,108.312426 C71.4758528,109.911767 75.2916925,111.955301 77.8857302,113.389172 C82.7678811,116.089555 81.6813434,119.058592 86.5641264,119.058592 C91.4488057,119.058592 98.5015038,114.739363 104.742617,108.526972 C110.981202,102.317097 112.607532,95.0256842 112.607532,86.1154258 C112.607532,77.2051675 110.981202,70.4548383 117.76274,65.5926383 C124.544277,60.732955 128.779815,56.5244592 128.779815,56.5244592 C128.779815,56.5244592 109.654475,41.9246467 68.0044943,67.9029383 C60.5485321,72.5531092 72.7798245,88.6723592 70.8109094,100.218826 C70.5511264,101.737005 70.0991925,103.405555 69.484183,105.155267 C69.7597679,104.168105 69.9759377,103.217434 70.1295321,102.31458 C71.6022679,93.6610217 65.824466,82.6726258 64.5944472,74.934505 C64.0198906,71.3212008 64.4357962,68.4157092 67.0443717,66.7893133 C112.82623,38.23773 133.848428,54.2833675 133.848428,54.2833675 C133.848428,54.2833675 129.193825,58.9108883 121.73723,64.2525133 C114.283796,69.5960258 116.071938,77.0151592 116.071938,86.8119133 C116.071938,96.6055217 114.283796,104.619847 107.425145,111.446305 C105.359523,113.503051 103.212362,115.371047 101.074683,116.977938" id="Fill-8" fill="#39383A"></path>
                        <path d="M128.779815,56.5242075 C128.779815,56.5242075 124.544277,60.7327033 117.76274,65.5923867 C110.981202,70.4552158 112.607532,77.205545 112.607532,86.1158033 C112.607532,95.0254325 110.981202,102.316845 104.742617,108.52672 C98.5015038,114.739112 91.4488057,119.05897 86.5641264,119.05897 C81.6813434,119.05897 82.7678811,116.089303 77.8850981,113.38892 C75.2916925,111.955049 71.4758528,109.911516 68.4678057,108.312174 C68.8622208,107.233782 69.2016453,106.179299 69.4822868,105.165082 C69.4822868,105.162566 69.484183,105.157532 69.484183,105.155016 C70.0991925,103.405303 70.5511264,101.736753 70.8109094,100.219203 C72.7798245,88.6727367 60.5485321,72.5528575 68.0044943,67.9026867 C109.654475,41.9250242 128.779815,56.5242075 128.779815,56.5242075" id="Fill-10" fill="#080808"></path>
                        <path d="M18.8459623,69.6921625 C18.8459623,67.5253125 17.0805755,65.76805 14.9037075,65.76805 C12.7262075,65.76805 10.9608208,67.5253125 10.9608208,69.6921625 C10.9608208,71.8615292 12.7262075,73.616275 14.9037075,73.616275 C17.0805755,73.616275 18.8459623,71.8615292 18.8459623,69.6921625 M48.9485566,73.616275 C48.9485566,71.449425 47.1831698,69.6921625 45.0031415,69.6921625 C42.8262736,69.6921625 41.0608868,71.449425 41.0608868,73.616275 C41.0608868,75.7862708 42.8262736,77.5435333 45.0031415,77.5435333 C47.1831698,77.5435333 48.9485566,75.7862708 48.9485566,73.616275 M133.848302,54.2832417 C133.848302,54.2832417 112.826104,38.2376042 67.0442453,66.7898167 C64.4356698,68.4162125 64.0197642,71.321075 64.5943208,74.9350083 C64.5943208,74.9350083 49.3929057,81.0511375 45.9006887,80.9051708 C42.4097358,80.76235 33.1011604,70.1067833 26.9915189,70.5113375 C20.8844057,70.9165208 9.39390566,79.3133792 8.375,82.7882667 C7.35546226,86.2637833 7.38516981,102.314454 7.38516981,102.314454 C6.27714151,100.083429 5.28731132,97.7555125 4.42958491,95.3369958 C5.38654717,94.6235208 6.00408491,93.4828417 6.00408491,92.1993417 C6.00408491,90.1312708 4.39987736,88.4407 2.36143396,88.2878125 L2.35890566,88.2878125 C0.819169811,81.75895 0.147273585,74.658175 0.482273585,67.0339333 C2.16801887,28.6214208 29.6177925,0.503333333 67.0442453,0.503333333 C100.568896,0.503333333 128.4055,18.4993875 133.848302,54.2832417" id="Fill-12" fill="#404040"></path>
                        <path d="M93.6953283,121.447853 C96.0466491,120.399032 98.5534604,118.86827 101.074809,116.978253 C96.1705358,143.748036 82.5676396,152.347486 70.8634981,150.829307 C59.3180075,149.336295 53.9965642,144.051924 53.8505547,143.905957 C56.2682434,144.357699 59.4027057,144.925207 59.908366,144.925207 C59.908366,144.925207 79.5121868,157.688482 88.4680642,134.82079 C93.1226679,122.931428 93.6656208,121.526499 93.6928,121.45037 L93.6953283,121.447853 Z" id="Fill-14" fill="#444444"></path>
                        <path d="M64.5945736,74.9346937 C65.8245925,82.6721854 71.6023943,93.6612104 70.1296585,102.314769 C69.9760642,103.217623 69.7598943,104.167665 69.4843094,105.155456 C69.4843094,105.157973 69.4817811,105.162377 69.4817811,105.164894 C69.1328755,106.162123 68.7334038,107.181373 68.2871585,108.215723 C67.8996962,109.114173 67.4781019,110.02269 67.0274321,110.930577 C67.1361491,110.987831 67.2454981,111.046973 67.3573755,111.106115 C64.020017,118.851156 58.4033943,127.186356 52.8986491,131.345148 C50.0423,120.91734 50.9246774,109.573465 50.9246774,109.573465 L43.0521774,120.556827 C43.6027151,126.754748 44.9490358,131.140669 46.2005453,134.026027 C45.8269887,134.01596 45.4597528,133.966885 45.1001019,133.882577 C45.0950453,133.882577 45.0906208,133.882577 45.0855642,133.878173 C44.8200925,133.796381 44.5520925,133.709556 44.2866208,133.625877 C28.2685642,128.442802 15.0000358,117.664548 7.38542264,102.314769 C7.38542264,102.314769 7.35508302,86.2634687 8.37462075,82.7885812 C9.39352642,79.3130646 20.8840264,70.9162062 26.9917717,70.5116521 C33.1014132,70.1070979 42.4093566,80.7620354 45.9009415,80.9054854 C49.3925264,81.0508229 64.5945736,74.9346937 64.5945736,74.9346937" id="Fill-16" fill="#434343"></path>
                        <path d="M61.9094538,142.568286 C62.3310481,144.244386 60.7514915,144.925773 59.9083028,144.925773 C59.4026425,144.925773 56.2681802,144.357636 53.8504915,143.905894 L53.8479632,143.904007 C52.246284,143.604523 50.9593783,143.355373 50.9593783,143.355373 C48.0139066,140.785857 48.7919915,138.515823 48.7919915,138.515823 C50.1035481,139.004057 56.4988877,139.984298 56.4988877,139.984298 C55.8712368,138.966936 55.3112179,137.891061 54.8150387,136.775548 C58.7231613,138.056532 61.9094538,142.568286 61.9094538,142.568286" id="Fill-18" fill="#4F4F4F"></path>
                        <path d="M54.8152915,136.775485 C55.3108387,137.890998 55.8714896,138.966873 56.4991406,139.984235 C56.4991406,139.984235 50.1038009,139.003994 48.7922443,138.51576 C48.7922443,138.51576 47.5527443,137.147952 46.2007349,134.026027 C44.9492255,131.140669 43.6029047,126.754748 43.052367,120.556827 L50.924867,109.573465 C50.924867,109.573465 50.0418575,120.91734 52.8988387,131.345148 C53.4089236,133.206223 54.0391028,135.040244 54.8152915,136.775485" id="Fill-20" fill="#3D3D3D"></path>
                        <path d="M45.0033311,69.6921625 C47.1827274,69.6921625 48.9481142,71.449425 48.9481142,73.616275 C48.9481142,75.7862708 47.1827274,77.5435333 45.0033311,77.5435333 C42.8264632,77.5435333 41.0610764,75.7862708 41.0610764,73.616275 C41.0610764,71.449425 42.8264632,69.6921625 45.0033311,69.6921625" id="Fill-22" fill="#1C1C1C"></path>
                        <path d="M14.9035179,65.7678612 C17.0803858,65.7678612 18.8457726,67.5251237 18.8457726,69.6919738 C18.8457726,71.8619696 17.0803858,73.6167154 14.9035179,73.6167154 C12.72665,73.6167154 10.9606311,71.8619696 10.9606311,69.6919738 C10.9606311,67.5251237 12.72665,65.7678612 14.9035179,65.7678612" id="Fill-24" fill="#1C1C1C"></path>
                        <path d="M6.00414811,92.1995933 C6.00414811,93.4830933 5.38661038,94.6237725 4.42964811,95.3366183 C3.62375189,93.0684725 2.93162925,90.718535 2.36149717,88.287435 C4.39994057,88.4403225 6.00414811,90.1315225 6.00414811,92.1995933" id="Fill-26" fill="#1C1C1C"></path>
                    </g>
                    <polygon id="Fill-29" fill="#C89E6C" points="198 151.787346 194.347586 172.729785 191.139813 191.105128 181.917308 244 149.070986 240.995546 130.528789 239.303164 105 236.970592 125.529745 133 142.711973 137.455973"></polygon>
                    <polygon id="Fill-31" fill="#8E6B44" points="125 98 125 133 70 128.432588 70.3057325 99.2175559"></polygon>
                    <path d="M125,132.565423 L104.520232,236 L98.3040645,233.174987 L78.0714221,223.974777 L55,213.488177 L64.5048429,160.311088 C76.1831266,160.2165 86.4863764,159.945349 86.4863764,159.945349 C86.4863764,159.945349 105.743188,144.735681 89.9968317,138.650552 C85.2634199,136.82186 77.3046981,136.941671 68.4905404,138.013663 L70.2837875,128 L125,132.565423 Z" id="Fill-33" fill="#A3815A"></path>
                    <path d="M98,233.67965 L56.5712783,268 C42.4566018,259.520485 29.4529195,221.145808 29.4529195,221.145808 L14,231.184196 C15.3445555,220.033225 29.4529195,212 29.4529195,212 L54.8605997,255.28387 C67.7127827,244.346616 77.8442925,224.508699 77.8442925,224.508699 L98,233.67965 Z" id="Fill-35" fill="#FDC07D"></path>
                    <path d="M89.8212087,139.42462 C105.535549,145.551412 86.3178909,160.865219 86.3178909,160.865219 C86.3178909,160.865219 76.0355899,161.138226 64.3810507,161.233461 C51.4364812,161.335045 36.7971658,161.220763 32.6235381,160.249365 L11.5720129,191.492831 C11.5720129,191.492831 15.8468195,199.149734 14.9298861,201.905203 C14.0129528,204.667022 8.28370021,205.89238 8.28370021,205.89238 L3.02872351,216 C3.02872351,216 -5.50824224,203.441663 6.08306015,189.042114 L22.8597788,148.916386 C22.8597788,148.916386 47.9141923,141.27853 68.3586444,138.78337 C77.1548809,137.704039 85.0974209,137.583408 89.8212087,139.42462" id="Fill-37" fill="#FDC07D"></path>
                    <g id="exclamations" transform="translate(38.395651, -1.646457)" fill="#DB1D1D">
                        <polygon id="Path-3" transform="translate(25.421214, 40.600828) rotate(-8.000000) translate(-25.421214, -40.600828) " points="4.04222003 19.6781381 38.3847235 69.4283321 46.8002089 63.992877 17.3508725 11.773324"></polygon>
                        <polygon id="Path-3-Copy" points="38.0689615 4.35173373 58.553116 48 66.0689615 44.9063987 49.8570092 -1.66533454e-16"></polygon>
                        <ellipse id="Oval" transform="translate(54.261973, 73.489472) rotate(-8.000000) translate(-54.261973, -73.489472) " cx="54.2619727" cy="73.4894725" rx="5.66279824" ry="5.65668876"></ellipse>
                        <ellipse id="Oval-Copy" transform="translate(65.583879, 56.565657) rotate(10.000000) translate(-65.583879, -56.565657) " cx="65.5838789" cy="56.5656566" rx="4.85376841" ry="4.84864921"></ellipse>
                    </g>
                </g>
            </g>
        </g>
    </g>
</svg>