<?xml version="1.0" encoding="UTF-8"?>
<svg width="281px" height="205px" viewBox="0 0 281 205" version="1.1" xmlns="http://www.w3.org/2000/svg" xmlns:xlink="http://www.w3.org/1999/xlink">
    <!-- Generator: Sketch 54.1 (76490) - https://sketchapp.com -->
    <title>box hero</title>
    <desc>Created with Sketch.</desc>
    <g id="Page-1" stroke="none" stroke-width="1" fill="none" fill-rule="evenodd">
        <g id="Mobile" transform="translate(-19.000000, -145.000000)">
            <g id="property" transform="translate(0.000000, 74.000000)">
                <g id="box-hero" transform="translate(19.000000, 71.000000)">
                    <path d="M109.5834,144.7382 L91.8944,144.7382 C94.6744,143.3582 96.5944,140.4882 96.5944,137.1682 C96.5944,136.4382 96.5034,135.7382 96.3234,135.0582 L105.1444,135.0582 C104.9744,135.7382 104.8844,136.4382 104.8844,137.1682 C104.8844,140.4882 106.8044,143.3582 109.5834,144.7382" id="Fill-1" fill="#916D57"></path>
                    <path d="M96.3236,135.0585 C96.5036,135.7385 96.5946,136.4385 96.5946,137.1685 C96.5946,140.4885 94.6746,143.3585 91.8936,144.7385 L84.4136,144.7385 C81.6346,143.3585 79.7146,140.4885 79.7146,137.1685 C79.7146,132.5085 83.4936,128.7385 88.1536,128.7385 C89.1746,128.7385 90.1536,128.9185 91.0636,129.2485 L91.0636,135.0585 L96.3236,135.0585 Z" id="Fill-3" fill="#A68167"></path>
                    <path d="M91.0638,93.9481 L91.0638,109.8081 C90.1538,110.1381 89.1738,110.3181 88.1538,110.3181 C83.4938,110.3181 79.7138,106.5381 79.7138,101.8781 C79.7138,97.2181 83.4938,93.4381 88.1538,93.4381 C89.1738,93.4381 90.1538,93.6181 91.0638,93.9481" id="Fill-5" fill="#C6AC9D"></path>
                    <path d="M96.5941,66.9984 C96.5941,67.2584 96.5831,67.5184 96.5641,67.7684 L91.0641,67.7684 L91.0641,74.9284 C90.1541,75.2584 89.1741,75.4384 88.1541,75.4384 C83.4931,75.4384 79.7141,71.6584 79.7141,66.9984 C79.7141,62.3384 83.4931,58.5584 88.1541,58.5584 C92.8141,58.5584 96.5941,62.3384 96.5941,66.9984" id="Fill-7" fill="#C6A998"></path>
                    <path d="M121.764,66.9984 C121.764,67.2584 121.753,67.5184 121.734,67.7684 L104.913,67.7684 C104.894,67.5184 104.884,67.2584 104.884,66.9984 C104.884,62.3384 108.663,58.5584 113.324,58.5584 C117.984,58.5584 121.764,62.3384 121.764,66.9984" id="Fill-9" fill="#D9CCC8"></path>
                    <path d="M148.7933,66.9984 C148.7933,67.2584 148.7833,67.5184 148.7643,67.7684 L131.9433,67.7684 C131.9243,67.5184 131.9133,67.2584 131.9133,66.9984 C131.9133,62.3384 135.6933,58.5584 140.3543,58.5584 C145.0143,58.5584 148.7933,62.3384 148.7933,66.9984" id="Fill-11" fill="#CAB7AF"></path>
                    <path d="M173.9935,66.9984 C173.9935,67.2584 173.9835,67.5184 173.9645,67.7684 L157.1435,67.7684 C157.1235,67.5184 157.1135,67.2584 157.1135,66.9984 C157.1135,62.3384 160.8935,58.5584 165.5545,58.5584 C170.2145,58.5584 173.9935,62.3384 173.9935,66.9984" id="Fill-13" fill="#E0CBC3"></path>
                    <path d="M198.8138,66.9984 C198.8138,67.2584 198.8038,67.5184 198.7838,67.7684 L181.9738,67.7684 C181.9538,67.5184 181.9438,67.2584 181.9438,66.9984 C181.9438,62.3384 185.7138,58.5584 190.3738,58.5584 C195.0428,58.5584 198.8138,62.3384 198.8138,66.9984" id="Fill-15" fill="#BDA18F"></path>
                    <polygon id="Fill-17" fill="#F2B58B" points="280.4535 44.5683 280.4535 151.0583 224.9035 151.0583 224.9035 46.6183"></polygon>
                    <polygon id="Fill-19" fill="#E6A470" points="235.7533 0.2484 224.9033 46.6184 59.5143 46.6184 47.2033 0.2484"></polygon>
                    <polygon id="Fill-21" fill="#F6B782" points="224.9037 151.0585 231.2537 204.9585 54.7147 204.9585 59.5137 151.0585"></polygon>
                    <polygon id="Fill-23" fill="#A65D2E" points="224.9037 46.6186 224.9037 151.0586 214.4937 144.7386 214.4937 119.5286 214.4937 84.6386 214.4937 58.0986"></polygon>
                    <polygon id="Fill-25" fill="#A96944" points="224.9037 46.6186 214.4937 58.0986 190.3737 58.0986 165.5537 58.0986 140.3537 58.0986 113.3237 58.0986 88.1537 58.0986 75.7437 58.0986 59.5137 46.6186"></polygon>
                    <polygon id="Fill-27" fill="#CA7738" points="224.9037 151.0585 59.5137 151.0585 75.7437 144.7385 84.4137 144.7385 91.8937 144.7385 109.5837 144.7385 117.0637 144.7385 136.6137 144.7385 144.0937 144.7385 161.8137 144.7385 169.2937 144.7385 186.6337 144.7385 194.1137 144.7385 214.4937 144.7385"></polygon>
                    <path d="M214.4935,119.5282 L214.4935,144.7382 L194.1135,144.7382 C196.9035,143.3582 198.8135,140.4982 198.8135,137.1682 C198.8135,136.4382 198.7235,135.7382 198.5545,135.0582 L198.8135,135.0582 L198.8135,126.6082 C200.1345,127.4682 201.7145,127.9682 203.4035,127.9682 C208.0635,127.9682 211.8445,124.1882 211.8445,119.5282 L214.4935,119.5282 Z" id="Fill-29" fill="#AD8972"></path>
                    <path d="M214.4935,84.6381 L214.4935,119.5281 L211.8445,119.5281 C211.8445,114.8681 208.0635,111.0881 203.4035,111.0881 C201.7145,111.0881 200.1345,111.5881 198.8135,112.4481 L198.8135,91.7181 C200.1345,92.5781 201.7145,93.0781 203.4035,93.0781 C208.0635,93.0781 211.8445,89.2981 211.8445,84.6381 L214.4935,84.6381 Z" id="Fill-31" fill="#A98877"></path>
                    <path d="M214.4935,58.0985 L214.4935,84.6385 L211.8445,84.6385 C211.8445,79.9785 208.0635,76.1985 203.4035,76.1985 C201.7145,76.1985 200.1345,76.6985 198.8135,77.5585 L198.8135,67.7685 L198.7835,67.7685 C198.8045,67.5185 198.8135,67.2585 198.8135,66.9985 C198.8135,62.3385 195.0435,58.5585 190.3735,58.5585 L190.3735,58.0985 L214.4935,58.0985 Z" id="Fill-33" fill="#A98877"></path>
                    <path d="M203.4037,76.1981 C208.0637,76.1981 211.8437,79.9781 211.8437,84.6381 C211.8437,89.2981 208.0637,93.0781 203.4037,93.0781 C201.7147,93.0781 200.1337,92.5781 198.8137,91.7181 L198.8137,77.5581 C200.1337,76.6981 201.7147,76.1981 203.4037,76.1981" id="Fill-35" fill="#BB9982"></path>
                    <path d="M203.4037,111.0883 C208.0637,111.0883 211.8437,114.8683 211.8437,119.5283 C211.8437,124.1883 208.0637,127.9683 203.4037,127.9683 C201.7147,127.9683 200.1337,127.4683 198.8137,126.6083 L198.8137,112.4483 C200.1337,111.5883 201.7147,111.0883 203.4037,111.0883" id="Fill-37" fill="#BFA598"></path>
                    <path d="M198.5541,135.0585 C198.7241,135.7385 198.8141,136.4385 198.8141,137.1685 C198.8141,140.4985 196.9041,143.3585 194.1141,144.7385 L186.6341,144.7385 C183.8541,143.3585 181.9441,140.4885 181.9441,137.1685 C181.9441,136.4385 182.0331,135.7385 182.2031,135.0585 L198.5541,135.0585 Z" id="Fill-39" fill="#AB8673"></path>
                    <path d="M190.3734,58.0985 L190.3734,58.5585 C185.7144,58.5585 181.9434,62.3385 181.9434,66.9985 C181.9434,67.2585 181.9534,67.5185 181.9744,67.7685 L173.9644,67.7685 C173.9834,67.5185 173.9934,67.2585 173.9934,66.9985 C173.9934,62.3385 170.2144,58.5585 165.5544,58.5585 L165.5544,58.0985 L190.3734,58.0985 Z" id="Fill-41" fill="#A98877"></path>
                    <path d="M186.6341,144.7382 L169.2931,144.7382 C172.0731,143.3582 173.9931,140.4882 173.9931,137.1682 C173.9931,136.4382 173.9041,135.7382 173.7241,135.0582 L182.2031,135.0582 C182.0331,135.7382 181.9441,136.4382 181.9441,137.1682 C181.9441,140.4882 183.8541,143.3582 186.6341,144.7382" id="Fill-43" fill="#946D54"></path>
                    <path d="M173.724,135.0585 C173.904,135.7385 173.994,136.4385 173.994,137.1685 C173.994,140.4885 172.074,143.3585 169.293,144.7385 L161.814,144.7385 C159.034,143.3585 157.114,140.4885 157.114,137.1685 C157.114,136.4385 157.203,135.7385 157.384,135.0585 L173.724,135.0585 Z" id="Fill-45" fill="#B6917E"></path>
                    <path d="M165.5541,58.0985 L165.5541,58.5585 C160.8941,58.5585 157.1141,62.3385 157.1141,66.9985 C157.1141,67.2585 157.1231,67.5185 157.1441,67.7685 L148.7641,67.7685 C148.7831,67.5185 148.7931,67.2585 148.7931,66.9985 C148.7931,62.3385 145.0141,58.5585 140.3541,58.5585 L140.3541,58.0985 L165.5541,58.0985 Z" id="Fill-47" fill="#A98877"></path>
                    <path d="M161.8138,144.7382 L144.0938,144.7382 C146.8738,143.3582 148.7928,140.4882 148.7928,137.1682 C148.7928,136.4382 148.7038,135.7382 148.5238,135.0582 L157.3838,135.0582 C157.2038,135.7382 157.1138,136.4382 157.1138,137.1682 C157.1138,140.4882 159.0338,143.3582 161.8138,144.7382" id="Fill-49" fill="#8F6A57"></path>
                    <path d="M148.5238,135.0585 C148.7038,135.7385 148.7938,136.4385 148.7938,137.1685 C148.7938,140.4885 146.8738,143.3585 144.0938,144.7385 L136.6138,144.7385 C133.8338,143.3585 131.9138,140.4885 131.9138,137.1685 C131.9138,136.4385 132.0028,135.7385 132.1838,135.0585 L148.5238,135.0585 Z" id="Fill-51" fill="#B99780"></path>
                    <path d="M140.3539,58.0985 L140.3539,58.5585 C135.6939,58.5585 131.9139,62.3385 131.9139,66.9985 C131.9139,67.2585 131.9239,67.5185 131.9439,67.7685 L121.7339,67.7685 C121.7529,67.5185 121.7639,67.2585 121.7639,66.9985 C121.7639,62.3385 117.9839,58.5585 113.3239,58.5585 L113.3239,58.0985 L140.3539,58.0985 Z" id="Fill-53" fill="#A98877"></path>
                    <path d="M136.6136,144.7382 L117.0636,144.7382 C119.8436,143.3582 121.7636,140.4882 121.7636,137.1682 C121.7636,136.4382 121.6746,135.7382 121.5036,135.0582 L132.1836,135.0582 C132.0036,135.7382 131.9136,136.4382 131.9136,137.1682 C131.9136,140.4882 133.8336,143.3582 136.6136,144.7382" id="Fill-55" fill="#9E7962"></path>
                    <path d="M121.5033,135.0585 C121.6743,135.7385 121.7643,136.4385 121.7643,137.1685 C121.7643,140.4885 119.8443,143.3585 117.0643,144.7385 L109.5833,144.7385 C106.8043,143.3585 104.8843,140.4885 104.8843,137.1685 C104.8843,136.4385 104.9743,135.7385 105.1443,135.0585 L121.5033,135.0585 Z" id="Fill-57" fill="#B89378"></path>
                    <path d="M113.3236,58.0985 L113.3236,58.5585 C108.6636,58.5585 104.8846,62.3385 104.8846,66.9985 C104.8846,67.2585 104.8936,67.5185 104.9136,67.7685 L96.5636,67.7685 C96.5836,67.5185 96.5946,67.2585 96.5946,66.9985 C96.5946,62.3385 92.8136,58.5585 88.1536,58.5585 L88.1536,58.0985 L113.3236,58.0985 Z" id="Fill-59" fill="#A98877"></path>
                    <path d="M91.0638,109.8085 L91.0638,129.2485 C90.1538,128.9185 89.1738,128.7385 88.1538,128.7385 C83.4938,128.7385 79.7138,132.5085 79.7138,137.1685 C79.7138,140.4885 81.6338,143.3585 84.4138,144.7385 L75.7438,144.7385 L75.7438,58.0985 L88.1538,58.0985 L88.1538,58.5585 C83.4938,58.5585 79.7138,62.3385 79.7138,66.9985 C79.7138,71.6585 83.4938,75.4385 88.1538,75.4385 C89.1738,75.4385 90.1538,75.2585 91.0638,74.9285 L91.0638,93.9485 C90.1538,93.6185 89.1738,93.4385 88.1538,93.4385 C83.4938,93.4385 79.7138,97.2185 79.7138,101.8785 C79.7138,106.5385 83.4938,110.3185 88.1538,110.3185 C89.1738,110.3185 90.1538,110.1385 91.0638,109.8085" id="Fill-61" fill="#A98877"></path>
                    <polygon id="Fill-63" fill="#BA703C" points="75.7435 58.0985 75.7435 144.7385 59.5135 151.0585 59.5135 46.6185"></polygon>
                    <polygon id="Fill-65" fill="#F5B88D" points="59.514 46.6186 59.514 151.0586 2.123 154.6286 0.253 43.4486"></polygon>
                </g>
            </g>
        </g>
    </g>
</svg>